<?xml version="1.0" encoding="utf-8"?>
<!-- Generator: Adobe Illustrator 24.0.0, SVG Export Plug-In . SVG Version: 6.00 Build 0)  -->
<svg version="1.1" id="Layer_1" xmlns="http://www.w3.org/2000/svg" xmlns:xlink="http://www.w3.org/1999/xlink" x="0px" y="0px"
	 viewBox="0 0 3185.9 809.2" style="enable-background:new 0 0 3185.9 809.2;" xml:space="preserve">
<style type="text/css">
	.st0{fill:url(#SVGID_1_);}
	.st1{fill:url(#SVGID_2_);}
	.st2{fill:url(#SVGID_3_);}
	.st3{fill:url(#SVGID_4_);}
	.st4{fill:url(#SVGID_5_);}
	.st5{fill:url(#SVGID_6_);}
	.st6{fill:url(#SVGID_7_);}
	.st7{fill:url(#SVGID_8_);}
	.st8{fill:url(#SVGID_9_);}
	.st9{fill:url(#SVGID_10_);}
	.st10{fill:url(#SVGID_11_);}
	.st11{fill:url(#SVGID_12_);}
	.st12{fill:url(#SVGID_13_);}
	.st13{fill:url(#SVGID_14_);}
	.st14{fill:url(#SVGID_15_);}
	.st15{fill:url(#SVGID_16_);}
	.st16{fill:url(#SVGID_17_);}
	.st17{fill:url(#SVGID_18_);}
	.st18{fill:url(#SVGID_19_);}
	.st19{fill:url(#SVGID_20_);}
	.st20{fill:url(#SVGID_21_);}
	.st21{fill:url(#SVGID_22_);}
	.st22{fill:url(#SVGID_23_);}
	.st23{fill:url(#SVGID_24_);}
	.st24{fill:url(#SVGID_25_);}
	.st25{fill:#FF9800;}
</style>
<g>
	<g>
		<linearGradient id="SVGID_1_" gradientUnits="userSpaceOnUse" x1="-130.3526" y1="275.5147" x2="3241.4836" y2="275.5147">
			<stop  offset="0" style="stop-color:#1400C8"/>
			<stop  offset="1" style="stop-color:#B900B4"/>
		</linearGradient>
		<path class="st0" d="M1024.9,272.3c0,0.6,0.4,1.1,1.2,1.5c17.5,9.2,26.3,24.8,26.3,46.6c0,19.7-6.8,34.3-20.4,44
			c-13.6,9.6-31.4,14.5-53.4,14.5h-76.7c-1.6,0-2.9-0.5-3.8-1.5c-1-1-1.5-2.3-1.5-3.8V177.6c0-1.6,0.5-2.8,1.5-3.8
			c1-1,2.3-1.5,3.8-1.5h74.3c24,0,42.1,4.5,54.4,13.6c12.3,9,18.4,23.7,18.4,44c0,19.3-7.7,32.9-23,41
			C1025.3,271.2,1024.9,271.7,1024.9,272.3z M945.5,216.2v36c0,1.4,0.7,2.1,2.1,2.1h28.6c8.1,0,14.3-1.7,18.6-5.2
			c4.3-3.4,6.5-8.3,6.5-14.6c0-6.5-2.2-11.5-6.5-15c-4.3-3.5-10.5-5.3-18.6-5.3h-28.6C946.2,214.2,945.5,214.8,945.5,216.2z
			 M996.8,331.1c4.3-3.6,6.5-8.9,6.5-15.8c0-6.7-2.1-11.8-6.3-15.5c-4.2-3.6-10.4-5.5-18.4-5.5h-31c-1.4,0-2.1,0.7-2.1,2.1v38.1
			c0,1.4,0.7,2.1,2.1,2.1h31C986.4,336.6,992.5,334.8,996.8,331.1z"/>
	</g>
	<g>
		<linearGradient id="SVGID_2_" gradientUnits="userSpaceOnUse" x1="-130.3526" y1="274.3345" x2="3241.4836" y2="274.3345">
			<stop  offset="0" style="stop-color:#1400C8"/>
			<stop  offset="1" style="stop-color:#B900B4"/>
		</linearGradient>
		<path class="st1" d="M1070,377.3c-1-1-1.5-2.3-1.5-3.8v-29.8c0-2.6,1-4.7,3-6.5c7.3-6.7,14.8-14.2,22.7-22.4
			c7.9-8.3,15.3-16.1,22.4-23.6c13-13.6,19.1-20,18.3-19.2c17.9-18.5,26.8-32,26.8-40.4c0-5.7-2.1-10.4-6.3-14.2
			c-4.2-3.7-9.7-5.6-16.4-5.6c-6.7,0-12.1,1.9-16.2,5.6c-4.1,3.7-6.2,8.7-6.2,14.8v5.3c0,1.6-0.5,2.9-1.5,3.8c-1,1-2.3,1.5-3.8,1.5
			h-38.9c-1.6,0-2.9-0.5-3.8-1.5c-1-1-1.5-2.3-1.5-3.8v-13c0.8-11,4.4-20.6,10.9-28.9c6.5-8.3,15-14.6,25.7-19s22.4-6.6,35.4-6.6
			c14.6,0,27.3,2.7,38.2,8.1c10.9,5.4,19.3,12.7,25.1,22c5.8,9.2,8.7,19.5,8.7,30.7c0,8.1-2,16.2-5.9,24.5
			c-3.9,8.3-9.8,17-17.7,26.3c-8.5,10.2-22.9,25.2-43.4,44.8l-8.3,8c-0.8,0.8-1.1,1.4-0.9,1.9c0.2,0.5,0.8,0.7,1.8,0.7h72
			c1.6,0,2.8,0.5,3.8,1.5c1,1,1.5,2.3,1.5,3.8v31.3c0,1.6-0.5,2.9-1.5,3.8c-1,1-2.3,1.5-3.8,1.5h-134.8
			C1072.3,378.8,1071,378.3,1070,377.3z"/>
	</g>
	<g>
		<linearGradient id="SVGID_3_" gradientUnits="userSpaceOnUse" x1="-130.3526" y1="275.5147" x2="3241.4836" y2="275.5147">
			<stop  offset="0" style="stop-color:#1400C8"/>
			<stop  offset="1" style="stop-color:#B900B4"/>
		</linearGradient>
		<path class="st2" d="M1359.7,272.3c0,0.6,0.4,1.1,1.2,1.5c17.5,9.2,26.3,24.8,26.3,46.6c0,19.7-6.8,34.3-20.4,44
			c-13.6,9.6-31.4,14.5-53.4,14.5h-76.7c-1.6,0-2.9-0.5-3.8-1.5c-1-1-1.5-2.3-1.5-3.8V177.6c0-1.6,0.5-2.8,1.5-3.8
			c1-1,2.3-1.5,3.8-1.5h74.3c24,0,42.1,4.5,54.4,13.6c12.3,9,18.4,23.7,18.4,44c0,19.3-7.7,32.9-23,41
			C1360.1,271.2,1359.7,271.7,1359.7,272.3z M1280.3,216.2v36c0,1.4,0.7,2.1,2.1,2.1h28.6c8.1,0,14.3-1.7,18.6-5.2
			c4.3-3.4,6.5-8.3,6.5-14.6c0-6.5-2.2-11.5-6.5-15c-4.3-3.5-10.5-5.3-18.6-5.3h-28.6C1281,214.2,1280.3,214.8,1280.3,216.2z
			 M1331.7,331.1c4.3-3.6,6.5-8.9,6.5-15.8c0-6.7-2.1-11.8-6.3-15.5c-4.2-3.6-10.4-5.5-18.4-5.5h-31c-1.4,0-2.1,0.7-2.1,2.1v38.1
			c0,1.4,0.7,2.1,2.1,2.1h31C1321.2,336.6,1327.3,334.8,1331.7,331.1z"/>
	</g>
	<g>
		<linearGradient id="SVGID_4_" gradientUnits="userSpaceOnUse" x1="-130.3526" y1="275.5147" x2="3241.4836" y2="275.5147">
			<stop  offset="0" style="stop-color:#1400C8"/>
			<stop  offset="1" style="stop-color:#B900B4"/>
		</linearGradient>
		<path class="st3" d="M1397.7,374.9l0.6-2.4l78.5-196.2c1.2-2.8,3.2-4.1,6.2-4.1h37.8c3.1,0,4.7,1.3,4.7,3.8l-0.6,2.4l-78.2,196.2
			c-1.2,2.8-3.2,4.1-6.2,4.1h-38.1C1399.3,378.8,1397.7,377.5,1397.7,374.9z"/>
	</g>
	<g>
		<linearGradient id="SVGID_5_" gradientUnits="userSpaceOnUse" x1="-130.3526" y1="275.5147" x2="3241.4836" y2="275.5147">
			<stop  offset="0" style="stop-color:#1400C8"/>
			<stop  offset="1" style="stop-color:#B900B4"/>
		</linearGradient>
		<path class="st4" d="M1579.8,374.3l-54-196.2c-0.2-0.4-0.3-1-0.3-1.8c0-2.8,1.6-4.1,4.7-4.1h41.3c1.6,0,2.9,0.4,4,1.3
			c1.1,0.9,1.7,2,1.9,3.4l24.8,104.1c0.4,0.8,0.8,1.2,1.3,1.2c0.5,0,0.8-0.4,1-1.2l23.9-104.1c0.6-3.1,2.6-4.7,5.9-4.7h35.1
			c3.1,0,5.1,1.6,5.9,4.7l26,104.1c0.4,0.8,0.8,1.2,1.3,1.2c0.5,0,0.8-0.4,1-1.2l23-104.1c0.2-1.4,0.8-2.5,1.9-3.4
			c1.1-0.9,2.4-1.3,4-1.3h40.1c1.8,0,3.1,0.5,4,1.5c0.9,1,1.1,2.5,0.7,4.4l-49,195.9c-0.8,3.1-2.8,4.7-5.9,4.7h-39.2
			c-1.6,0-2.9-0.4-4-1.3c-1.1-0.9-1.7-2-1.9-3.4l-24.8-110.6c-0.2-1-0.6-1.5-1.2-1.5c-0.6,0-1,0.5-1.2,1.5L1627.8,374
			c-0.6,3.1-2.5,4.7-5.6,4.7h-36.6C1582.5,378.8,1580.5,377.3,1579.8,374.3z"/>
	</g>
	<g>
		<linearGradient id="SVGID_6_" gradientUnits="userSpaceOnUse" x1="-130.3526" y1="275.5147" x2="3241.4836" y2="275.5147">
			<stop  offset="0" style="stop-color:#1400C8"/>
			<stop  offset="1" style="stop-color:#B900B4"/>
		</linearGradient>
		<path class="st5" d="M1893.9,173.7c1-1,2.3-1.5,3.8-1.5h38.3c1.6,0,2.8,0.5,3.8,1.5c1,1,1.5,2.3,1.5,3.8v195.9
			c0,1.6-0.5,2.9-1.5,3.8c-1,1-2.3,1.5-3.8,1.5h-38.3c-1.6,0-2.9-0.5-3.8-1.5c-1-1-1.5-2.3-1.5-3.8v-76.1c0-1.4-0.7-2.1-2.1-2.1h-54
			c-1.4,0-2.1,0.7-2.1,2.1v76.1c0,1.6-0.5,2.9-1.5,3.8c-1,1-2.3,1.5-3.8,1.5h-38.3c-1.6,0-2.9-0.5-3.8-1.5c-1-1-1.5-2.3-1.5-3.8
			V177.6c0-1.6,0.5-2.8,1.5-3.8c1-1,2.3-1.5,3.8-1.5h38.3c1.6,0,2.8,0.5,3.8,1.5c1,1,1.5,2.3,1.5,3.8v73.8c0,1.4,0.7,2.1,2.1,2.1h54
			c1.4,0,2.1-0.7,2.1-2.1v-73.8C1892.5,176,1892.9,174.7,1893.9,173.7z"/>
	</g>
	<g>
		<linearGradient id="SVGID_7_" gradientUnits="userSpaceOnUse" x1="-130.3526" y1="275.9571" x2="3241.4836" y2="275.9571">
			<stop  offset="0" style="stop-color:#1400C8"/>
			<stop  offset="1" style="stop-color:#B900B4"/>
		</linearGradient>
		<path class="st6" d="M1995.6,372.4c-12.1-6.4-21.5-15.4-28.2-27c-6.7-11.6-10-25.1-10-40.4v-59c0-14.9,3.3-28.2,10-39.7
			c6.7-11.5,16.1-20.5,28.2-26.8c12.1-6.4,26.1-9.6,42-9.6c15.9,0,30,3.2,42.2,9.6c12.2,6.4,21.6,15.3,28.3,26.8
			c6.7,11.5,10,24.7,10,39.7v59c0,15.3-3.3,28.8-10,40.4c-6.7,11.6-16.1,20.6-28.3,27c-12.2,6.4-26.3,9.6-42.2,9.6
			C2021.7,382,2007.6,378.8,1995.6,372.4z M2060.5,331c5.8-6.1,8.7-14.3,8.7-24.5v-61.1c0-10-2.9-18.1-8.7-24.3
			c-5.8-6.2-13.4-9.3-22.9-9.3c-9.2,0-16.8,3.1-22.6,9.3c-5.8,6.2-8.7,14.3-8.7,24.3v61.1c0,10.2,2.9,18.4,8.7,24.5
			c5.8,6.1,13.3,9.1,22.6,9.1C2047,340.1,2054.6,337.1,2060.5,331z"/>
	</g>
	<g>
		<linearGradient id="SVGID_8_" gradientUnits="userSpaceOnUse" x1="-130.3526" y1="275.5147" x2="3241.4836" y2="275.5147">
			<stop  offset="0" style="stop-color:#1400C8"/>
			<stop  offset="1" style="stop-color:#B900B4"/>
		</linearGradient>
		<path class="st7" d="M2137.9,377.3c-1-1-1.5-2.3-1.5-3.8V177.6c0-1.6,0.5-2.8,1.5-3.8c1-1,2.3-1.5,3.8-1.5h38.4
			c1.6,0,2.8,0.5,3.8,1.5c1,1,1.5,2.3,1.5,3.8v157.2c0,1.4,0.7,2.1,2.1,2.1h91.7c1.6,0,2.8,0.5,3.8,1.5c1,1,1.5,2.3,1.5,3.8v31.3
			c0,1.6-0.5,2.9-1.5,3.8c-1,1-2.3,1.5-3.8,1.5h-137.5C2140.1,378.8,2138.9,378.3,2137.9,377.3z"/>
	</g>
	<g>
		<linearGradient id="SVGID_9_" gradientUnits="userSpaceOnUse" x1="-130.3526" y1="275.5147" x2="3241.4836" y2="275.5147">
			<stop  offset="0" style="stop-color:#1400C8"/>
			<stop  offset="1" style="stop-color:#B900B4"/>
		</linearGradient>
		<path class="st8" d="M2443.2,212.7c-1,1-2.3,1.5-3.8,1.5h-90.3c-1.4,0-2.1,0.7-2.1,2.1v35.1c0,1.4,0.7,2.1,2.1,2.1h56.9
			c1.6,0,2.8,0.5,3.8,1.5c1,1,1.5,2.3,1.5,3.8v31c0,1.6-0.5,2.9-1.5,3.8c-1,1-2.3,1.5-3.8,1.5h-56.9c-1.4,0-2.1,0.7-2.1,2.1v37.8
			c0,1.4,0.7,2.1,2.1,2.1h90.3c1.6,0,2.8,0.5,3.8,1.5c1,1,1.5,2.3,1.5,3.8v31.3c0,1.6-0.5,2.9-1.5,3.8c-1,1-2.3,1.5-3.8,1.5h-136
			c-1.6,0-2.9-0.5-3.8-1.5c-1-1-1.5-2.3-1.5-3.8V177.6c0-1.6,0.5-2.8,1.5-3.8c1-1,2.3-1.5,3.8-1.5h136c1.6,0,2.8,0.5,3.8,1.5
			c1,1,1.5,2.3,1.5,3.8v31.3C2444.7,210.4,2444.2,211.7,2443.2,212.7z"/>
	</g>
	<g>
		<linearGradient id="SVGID_10_" gradientUnits="userSpaceOnUse" x1="-130.3526" y1="275.5147" x2="3241.4836" y2="275.5147">
			<stop  offset="0" style="stop-color:#1400C8"/>
			<stop  offset="1" style="stop-color:#B900B4"/>
		</linearGradient>
		<path class="st9" d="M2493.2,373.3c-11.9-5.2-21.1-12.7-27.6-22.4c-6.5-9.7-9.7-21-9.7-33.8v-3.8c0-1.6,0.5-2.8,1.5-3.8
			c1-1,2.3-1.5,3.8-1.5h37.5c1.6,0,2.8,0.3,3.8,1c1,0.7,1.5,1.5,1.5,2.5v3.5c0,6.3,3.2,11.9,9.6,16.8c6.4,4.9,14.6,7.4,24.6,7.4
			c8.7,0,15-1.9,19.2-5.6c4.1-3.7,6.2-8.1,6.2-13c0-5.5-2.4-9.7-7.2-12.7c-4.8-3-13.4-6.4-25.8-10.3l-6.5-2.1
			c-12.6-4.1-23.6-8.6-33-13.4c-9.4-4.8-17.5-11.5-24.2-20.1c-6.7-8.6-10-19.1-10-31.7c0-12.2,3.2-22.9,9.6-32
			c6.4-9.1,15.2-16.2,26.5-21.1c11.3-4.9,24.1-7.4,38.5-7.4c15.1,0,28.8,2.8,40.9,8.3c12.1,5.5,21.6,13.3,28.5,23.3
			c6.9,10,10.3,21.5,10.3,34.5v2.4c0,1.6-0.5,2.9-1.5,3.8c-1,1-2.3,1.5-3.8,1.5h-37.5c-1.6,0-2.9-0.2-3.8-0.7
			c-1-0.5-1.5-1.2-1.5-2.2V238c0-6.9-3.1-13-9.1-18.3c-6.1-5.3-14.3-8-24.5-8c-7.7,0-13.7,1.6-18,4.7c-4.3,3.1-6.5,7.6-6.5,13.3
			c0,4.3,1.4,7.9,4.1,10.8c2.8,2.9,7,5.5,12.8,8c5.8,2.5,14.7,5.7,26.7,9.6c13.8,4.7,24.5,8.9,32.2,12.4s14.9,9.3,21.7,17.3
			c6.8,8,10.2,18.4,10.2,31.4c0,12.4-3.2,23.3-9.7,32.6c-6.5,9.3-15.6,16.6-27.4,21.7c-11.8,5.1-25.4,7.7-40.7,7.7
			C2518.9,381.1,2505.1,378.5,2493.2,373.3z"/>
	</g>
	<g>
		<linearGradient id="SVGID_11_" gradientUnits="userSpaceOnUse" x1="-130.3526" y1="275.5147" x2="3241.4836" y2="275.5147">
			<stop  offset="0" style="stop-color:#1400C8"/>
			<stop  offset="1" style="stop-color:#B900B4"/>
		</linearGradient>
		<path class="st10" d="M2759.4,374.3l-6.8-24.2c-0.2-1.2-1-1.8-2.4-1.8h-66.7c-1.2,0-2,0.6-2.4,1.8l-6.8,24.2
			c-0.8,3-2.8,4.4-5.9,4.4H2627c-2,0-3.3-0.5-4.1-1.6c-0.8-1.1-0.9-2.5-0.3-4.3l62-196.2c1-3,3-4.4,6.2-4.4h52.2
			c3.3,0,5.4,1.5,6.2,4.4l62.2,196.2c0.2,0.4,0.3,1.1,0.3,2.1c0,2.6-1.6,3.8-4.7,3.8h-41.6C2762.2,378.8,2760.2,377.3,2759.4,374.3z
			 M2693.4,308.8c0,1.2,0.6,1.8,1.8,1.8h43.7c0.8,0,1.3-0.2,1.6-0.7c0.3-0.5,0.3-1,0.1-1.6l-22.4-78.5c-0.2-1-0.5-1.5-1-1.5
			c-0.5,0-0.9,0.5-1.3,1.5l-22.4,78.5V308.8z"/>
	</g>
	<g>
		<linearGradient id="SVGID_12_" gradientUnits="userSpaceOnUse" x1="-130.3526" y1="275.5147" x2="3241.4836" y2="275.5147">
			<stop  offset="0" style="stop-color:#1400C8"/>
			<stop  offset="1" style="stop-color:#B900B4"/>
		</linearGradient>
		<path class="st11" d="M2827.9,377.3c-1-1-1.5-2.3-1.5-3.8V177.6c0-1.6,0.5-2.8,1.5-3.8c1-1,2.3-1.5,3.8-1.5h38.4
			c1.6,0,2.8,0.5,3.8,1.5c1,1,1.5,2.3,1.5,3.8v157.2c0,1.4,0.7,2.1,2.1,2.1h91.7c1.6,0,2.8,0.5,3.8,1.5c1,1,1.5,2.3,1.5,3.8v31.3
			c0,1.6-0.5,2.9-1.5,3.8c-1,1-2.3,1.5-3.8,1.5h-137.5C2830.1,378.8,2828.9,378.3,2827.9,377.3z"/>
	</g>
	<g>
		<linearGradient id="SVGID_13_" gradientUnits="userSpaceOnUse" x1="-130.3526" y1="275.5147" x2="3241.4836" y2="275.5147">
			<stop  offset="0" style="stop-color:#1400C8"/>
			<stop  offset="1" style="stop-color:#B900B4"/>
		</linearGradient>
		<path class="st12" d="M3133.2,212.7c-1,1-2.3,1.5-3.8,1.5h-90.3c-1.4,0-2.1,0.7-2.1,2.1v35.1c0,1.4,0.7,2.1,2.1,2.1h56.9
			c1.6,0,2.8,0.5,3.8,1.5c1,1,1.5,2.3,1.5,3.8v31c0,1.6-0.5,2.9-1.5,3.8c-1,1-2.3,1.5-3.8,1.5h-56.9c-1.4,0-2.1,0.7-2.1,2.1v37.8
			c0,1.4,0.7,2.1,2.1,2.1h90.3c1.6,0,2.8,0.5,3.8,1.5c1,1,1.5,2.3,1.5,3.8v31.3c0,1.6-0.5,2.9-1.5,3.8c-1,1-2.3,1.5-3.8,1.5h-136
			c-1.6,0-2.9-0.5-3.8-1.5c-1-1-1.5-2.3-1.5-3.8V177.6c0-1.6,0.5-2.8,1.5-3.8c1-1,2.3-1.5,3.8-1.5h136c1.6,0,2.8,0.5,3.8,1.5
			c1,1,1.5,2.3,1.5,3.8v31.3C3134.7,210.4,3134.2,211.7,3133.2,212.7z"/>
	</g>
	<g>
		<linearGradient id="SVGID_14_" gradientUnits="userSpaceOnUse" x1="-130.3526" y1="555.5147" x2="3241.4836" y2="555.5147">
			<stop  offset="0" style="stop-color:#1400C8"/>
			<stop  offset="1" style="stop-color:#B900B4"/>
		</linearGradient>
		<path class="st13" d="M928.8,653.3c-11.9-5.2-21.1-12.7-27.6-22.4c-6.5-9.7-9.7-21-9.7-33.8v-3.8c0-1.6,0.5-2.8,1.5-3.8
			c1-1,2.3-1.5,3.8-1.5h37.5c1.6,0,2.8,0.3,3.8,1c1,0.7,1.5,1.5,1.5,2.5v3.5c0,6.3,3.2,11.9,9.6,16.8c6.4,4.9,14.6,7.4,24.6,7.4
			c8.7,0,15-1.9,19.2-5.6c4.1-3.7,6.2-8.1,6.2-13c0-5.5-2.4-9.7-7.2-12.7c-4.8-3-13.4-6.4-25.8-10.3l-6.5-2.1
			c-12.6-4.1-23.6-8.6-33-13.4c-9.4-4.8-17.5-11.5-24.2-20.1c-6.7-8.6-10-19.1-10-31.7c0-12.2,3.2-22.9,9.6-32
			c6.4-9.1,15.2-16.2,26.6-21.1c11.3-4.9,24.1-7.4,38.5-7.4c15.1,0,28.8,2.8,40.9,8.3c12.1,5.5,21.6,13.3,28.5,23.3
			c6.9,10,10.3,21.5,10.3,34.5v2.4c0,1.6-0.5,2.9-1.5,3.8c-1,1-2.3,1.5-3.8,1.5h-37.5c-1.6,0-2.9-0.2-3.8-0.7
			c-1-0.5-1.5-1.2-1.5-2.2V518c0-6.9-3.1-13-9.1-18.3c-6.1-5.3-14.3-8-24.5-8c-7.7,0-13.7,1.6-18,4.7c-4.3,3.1-6.5,7.6-6.5,13.3
			c0,4.3,1.4,7.9,4.1,10.8c2.8,2.9,7,5.5,12.8,8c5.8,2.5,14.7,5.7,26.7,9.6c13.8,4.7,24.5,8.9,32.2,12.4c7.7,3.5,14.9,9.3,21.7,17.3
			c6.8,8,10.2,18.4,10.2,31.4c0,12.4-3.2,23.3-9.7,32.6c-6.5,9.3-15.6,16.6-27.4,21.7c-11.8,5.1-25.4,7.7-40.7,7.7
			C954.6,661.1,940.7,658.5,928.8,653.3z"/>
	</g>
	<g>
		<linearGradient id="SVGID_15_" gradientUnits="userSpaceOnUse" x1="-130.3526" y1="555.9571" x2="3241.4836" y2="555.9571">
			<stop  offset="0" style="stop-color:#1400C8"/>
			<stop  offset="1" style="stop-color:#B900B4"/>
		</linearGradient>
		<path class="st14" d="M1099.6,652.4c-12.1-6.4-21.5-15.4-28.2-27c-6.7-11.6-10-25.1-10-40.4v-59c0-14.9,3.3-28.2,10-39.7
			c6.7-11.5,16.1-20.5,28.2-26.8c12.1-6.4,26.1-9.6,42-9.6s30,3.2,42.2,9.6c12.2,6.4,21.6,15.3,28.3,26.8c6.7,11.5,10,24.7,10,39.7
			v59c0,15.3-3.3,28.8-10,40.4c-6.7,11.6-16.1,20.6-28.3,27c-12.2,6.4-26.3,9.6-42.2,9.6S1111.7,658.8,1099.6,652.4z M1164.5,611
			c5.8-6.1,8.7-14.3,8.7-24.5v-61.1c0-10-2.9-18.1-8.7-24.3c-5.8-6.2-13.4-9.3-22.9-9.3c-9.2,0-16.8,3.1-22.6,9.3
			c-5.8,6.2-8.7,14.3-8.7,24.3v61.1c0,10.2,2.9,18.4,8.7,24.5c5.8,6.1,13.3,9.1,22.6,9.1C1151.1,620.1,1158.7,617.1,1164.5,611z"/>
	</g>
	<g>
		<linearGradient id="SVGID_16_" gradientUnits="userSpaceOnUse" x1="-130.3526" y1="555.5147" x2="3241.4836" y2="555.5147">
			<stop  offset="0" style="stop-color:#1400C8"/>
			<stop  offset="1" style="stop-color:#B900B4"/>
		</linearGradient>
		<path class="st15" d="M1242,657.3c-1-1-1.5-2.3-1.5-3.8V457.6c0-1.6,0.5-2.8,1.5-3.8c1-1,2.3-1.5,3.8-1.5h38.3
			c1.6,0,2.8,0.5,3.8,1.5c1,1,1.5,2.3,1.5,3.8v157.2c0,1.4,0.7,2.1,2.1,2.1h91.7c1.6,0,2.8,0.5,3.8,1.5c1,1,1.5,2.3,1.5,3.8v31.3
			c0,1.6-0.5,2.9-1.5,3.8c-1,1-2.3,1.5-3.8,1.5h-137.5C1244.2,658.8,1243,658.3,1242,657.3z"/>
	</g>
	<g>
		<linearGradient id="SVGID_17_" gradientUnits="userSpaceOnUse" x1="-130.3526" y1="556.6949" x2="3241.4836" y2="556.6949">
			<stop  offset="0" style="stop-color:#1400C8"/>
			<stop  offset="1" style="stop-color:#B900B4"/>
		</linearGradient>
		<path class="st16" d="M1438.6,652.1c-11.9-6-21.1-14.5-27.7-25.5c-6.6-11-9.9-23.7-9.9-38.1v-131c0-1.6,0.5-2.8,1.5-3.8
			c1-1,2.3-1.5,3.8-1.5h38.4c1.6,0,2.8,0.5,3.8,1.5c1,1,1.5,2.3,1.5,3.8v131c0,9.2,2.7,16.7,8.1,22.3c5.4,5.6,12.6,8.4,21.7,8.4
			c8.9,0,16-2.8,21.4-8.4c5.4-5.6,8.1-13,8.1-22.3v-131c0-1.6,0.5-2.8,1.5-3.8c1-1,2.3-1.5,3.8-1.5h38.3c1.6,0,2.8,0.5,3.8,1.5
			c1,1,1.5,2.3,1.5,3.8v131c0,14.4-3.2,27-9.7,38.1c-6.5,11-15.7,19.5-27.6,25.5c-11.9,6-25.6,9-41.2,9
			C1464.2,661.1,1450.5,658.1,1438.6,652.1z"/>
	</g>
	<g>
		<linearGradient id="SVGID_18_" gradientUnits="userSpaceOnUse" x1="-130.3526" y1="555.5147" x2="3241.4836" y2="555.5147">
			<stop  offset="0" style="stop-color:#1400C8"/>
			<stop  offset="1" style="stop-color:#B900B4"/>
		</linearGradient>
		<path class="st17" d="M1729.9,453.7c1,1,1.5,2.3,1.5,3.8v31.6c0,1.6-0.5,2.9-1.5,3.8c-1,1-2.3,1.5-3.8,1.5h-49.3
			c-1.4,0-2.1,0.7-2.1,2.1v156.9c0,1.6-0.5,2.9-1.5,3.8c-1,1-2.3,1.5-3.8,1.5h-38.4c-1.6,0-2.9-0.5-3.8-1.5c-1-1-1.5-2.3-1.5-3.8
			V496.5c0-1.4-0.7-2.1-2.1-2.1h-47.5c-1.6,0-2.9-0.5-3.8-1.5c-1-1-1.5-2.3-1.5-3.8v-31.6c0-1.6,0.5-2.8,1.5-3.8
			c1-1,2.3-1.5,3.8-1.5h149.9C1727.6,452.3,1728.9,452.8,1729.9,453.7z"/>
	</g>
	<g>
		<linearGradient id="SVGID_19_" gradientUnits="userSpaceOnUse" x1="-130.3526" y1="555.5147" x2="3241.4836" y2="555.5147">
			<stop  offset="0" style="stop-color:#1400C8"/>
			<stop  offset="1" style="stop-color:#B900B4"/>
		</linearGradient>
		<path class="st18" d="M1746.7,657.3c-1-1-1.5-2.3-1.5-3.8V457.6c0-1.6,0.5-2.8,1.5-3.8c1-1,2.3-1.5,3.8-1.5h38.3
			c1.6,0,2.8,0.5,3.8,1.5c1,1,1.5,2.3,1.5,3.8v195.9c0,1.6-0.5,2.9-1.5,3.8c-1,1-2.3,1.5-3.8,1.5h-38.3
			C1749,658.8,1747.7,658.3,1746.7,657.3z"/>
	</g>
	<g>
		<linearGradient id="SVGID_20_" gradientUnits="userSpaceOnUse" x1="-130.3526" y1="555.9571" x2="3241.4836" y2="555.9571">
			<stop  offset="0" style="stop-color:#1400C8"/>
			<stop  offset="1" style="stop-color:#B900B4"/>
		</linearGradient>
		<path class="st19" d="M1851,652.4c-12.1-6.4-21.5-15.4-28.2-27c-6.7-11.6-10-25.1-10-40.4v-59c0-14.9,3.3-28.2,10-39.7
			c6.7-11.5,16.1-20.5,28.2-26.8c12.1-6.4,26.1-9.6,42-9.6s30,3.2,42.2,9.6c12.2,6.4,21.6,15.3,28.3,26.8c6.7,11.5,10,24.7,10,39.7
			v59c0,15.3-3.3,28.8-10,40.4c-6.7,11.6-16.1,20.6-28.3,27c-12.2,6.4-26.3,9.6-42.2,9.6S1863.1,658.8,1851,652.4z M1915.9,611
			c5.8-6.1,8.7-14.3,8.7-24.5v-61.1c0-10-2.9-18.1-8.7-24.3c-5.8-6.2-13.4-9.3-22.9-9.3c-9.2,0-16.8,3.1-22.6,9.3
			c-5.8,6.2-8.7,14.3-8.7,24.3v61.1c0,10.2,2.9,18.4,8.7,24.5c5.8,6.1,13.3,9.1,22.6,9.1C1902.5,620.1,1910.1,617.1,1915.9,611z"/>
	</g>
	<g>
		<linearGradient id="SVGID_21_" gradientUnits="userSpaceOnUse" x1="-130.3526" y1="555.5147" x2="3241.4836" y2="555.5147">
			<stop  offset="0" style="stop-color:#1400C8"/>
			<stop  offset="1" style="stop-color:#B900B4"/>
		</linearGradient>
		<path class="st20" d="M1993.6,657.3c-1-1-1.5-2.3-1.5-3.8V457.6c0-1.6,0.5-2.8,1.5-3.8c1-1,2.3-1.5,3.8-1.5h36.3
			c2.8,0,4.8,1.2,6.2,3.5l64.9,109.7c0.4,0.8,0.9,1.1,1.5,0.9c0.6-0.2,0.9-0.8,0.9-1.8l-0.3-107.1c0-1.6,0.5-2.8,1.5-3.8
			c1-1,2.3-1.5,3.8-1.5h37.8c1.6,0,2.8,0.5,3.8,1.5c1,1,1.5,2.3,1.5,3.8v195.9c0,1.6-0.5,2.9-1.5,3.8c-1,1-2.3,1.5-3.8,1.5h-36.3
			c-2.6,0-4.6-1.2-6.2-3.5L2042.6,544c-0.4-1-0.9-1.4-1.6-1.2c-0.7,0.2-1,0.8-1,1.8l0.6,108.9c0,1.6-0.5,2.9-1.5,3.8
			c-1,1-2.3,1.5-3.8,1.5h-37.8C1995.9,658.8,1994.6,658.3,1993.6,657.3z"/>
	</g>
	<g>
		<linearGradient id="SVGID_22_" gradientUnits="userSpaceOnUse" x1="-130.3526" y1="126.0201" x2="3241.4836" y2="126.0201">
			<stop  offset="0" style="stop-color:#1400C8"/>
			<stop  offset="1" style="stop-color:#B900B4"/>
		</linearGradient>
		<path class="st21" d="M349.9,123.3c10.3-1.2,20.9-2.4,31.4-2.9c4.9-0.2,9.8,0,14.6,0.3c3.9,0.2,7.6,0.4,11.2,0.3
			c0.7,0,1.5,0,2.2,0c14.8,0,29.2,2.5,43.7,5.3c11.5,2.2,23.7,5.6,36.3,9.9c13.8,4.8,25.5,9.8,35.6,15.1
			c13.6,7.2,26.9,15.3,39.3,24.1c7.3,5.1,14.1,10.9,20.7,16.5c3.5,3,7.2,6.1,10.8,9c0.7,0.5,1.5,0.8,1.8,0.9c24,0.1,48.4,0.1,72,0.1
			l16.7,0l7.2,0c-3.5-5.1-6.8-10-10.5-14.5c-8.5-10.2-17.7-20.1-26.6-29.8l-1.3-1.5c-12-13-26.3-24.2-38.8-33.6
			c-9.6-7.3-20.3-13.6-30.8-19.7l-0.6-0.4c-12.9-7.6-22.9-13-32.5-17.5c-10.6-5-21.8-9-30.3-11.9c-12.5-4.3-25.4-8.1-37.9-11.8
			l-1.3-0.4c-5.3-1.6-10.9-2.9-16.7-3.9c-6-1.1-12.3-1.8-18.4-2.5c-4.1-0.5-8.2-1-12.1-1.5c-9.7-1.3-19.7-2.6-29.4-2.8
			c-12.8-0.3-25.9,0.3-38.6,0.9c-4.2,0.2-8.4,0.4-12.6,0.6c-4.9,0.2-9.8,0.9-13.6,1.5c-1.9,0.3-3.7,0.6-5.6,0.9
			c-8.3,1.3-16.8,2.7-25,4.5c-11.5,2.6-23.5,5.7-35.8,9.4c-10,3-20.6,6.2-30.3,10.4c-16.2,6.9-28.3,12.8-39.3,19
			c-13.7,7.7-27.4,16.4-40.5,25.8c-11.2,8-21.7,17.4-29.6,24.7c-15.9,14.7-30,30.4-42.1,46.6c-1.8,2.4-3.5,4.9-5.3,7.5h204.9
			c-11.1-13.7-21.2-26.2-31.3-38.9c-1.2-1.5-1.9-3-2.4-4.3c-0.2-0.3-0.3-0.7-0.5-1c-0.8-1.6-0.9-3.4-0.4-5.1c0.6-1.7,1.8-3,3.4-3.8
			c1.4-0.6,2.6-1.2,3.9-1.8c2.7-1.3,5.3-2.5,8.1-3.6c9.6-3.5,19.5-7.1,29.4-10.3c7.3-2.3,15.1-4.3,23.7-6.2c6.3-1.4,13.1-2.4,21-3.3
			L349.9,123.3z"/>
	</g>
	<g>
		<linearGradient id="SVGID_23_" gradientUnits="userSpaceOnUse" x1="-130.3526" y1="683.7349" x2="3241.4836" y2="683.7349">
			<stop  offset="0" style="stop-color:#1400C8"/>
			<stop  offset="1" style="stop-color:#B900B4"/>
		</linearGradient>
		<path class="st22" d="M431.5,686.4c-10.3,1.2-20.9,2.4-31.4,2.9c-4.9,0.2-9.8,0-14.6-0.3c-3.9-0.2-7.6-0.4-11.2-0.3
			c-0.7,0-1.5,0-2.2,0c-14.8,0-29.2-2.5-43.7-5.3c-11.5-2.2-23.7-5.6-36.3-9.9c-13.8-4.8-25.5-9.8-35.6-15.1
			c-13.6-7.2-26.9-15.3-39.3-24.1c-7.3-5.1-14.1-10.9-20.7-16.5c-3.5-3-7.2-6.1-10.8-9c-0.7-0.5-1.5-0.8-1.8-0.9
			c-24-0.1-48.4-0.1-72-0.1l-16.7,0l-7.2,0c3.5,5.1,6.8,10,10.5,14.5c8.5,10.2,17.7,20.1,26.6,29.8l1.3,1.5
			c12,13,26.3,24.2,38.8,33.6c9.6,7.3,20.3,13.6,30.8,19.7l0.6,0.4c12.9,7.6,22.9,13,32.5,17.5c10.6,5,21.8,9,30.3,11.9
			c12.5,4.3,25.4,8.1,37.9,11.8l1.3,0.4c5.3,1.6,10.9,2.9,16.7,3.9c6,1.1,12.3,1.8,18.4,2.5c4.1,0.5,8.2,1,12.1,1.5
			c9.7,1.3,19.7,2.6,29.4,2.8c12.8,0.3,25.9-0.3,38.6-0.9c4.2-0.2,8.4-0.4,12.6-0.6c4.9-0.2,9.8-0.9,13.6-1.5
			c1.9-0.3,3.7-0.6,5.6-0.9c8.3-1.3,16.8-2.7,25-4.5c11.5-2.6,23.5-5.7,35.8-9.4c10-3,20.6-6.2,30.3-10.4
			c16.2-6.9,28.3-12.8,39.3-19c13.7-7.7,27.4-16.4,40.5-25.8c11.2-8,21.7-17.4,29.6-24.7c15.9-14.7,30-30.4,42.1-46.6
			c1.8-2.4,3.5-4.9,5.3-7.5H488.5c11.1,13.7,21.2,26.2,31.3,38.9c1.2,1.5,1.9,3,2.4,4.3c0.2,0.3,0.3,0.7,0.5,1
			c0.8,1.6,0.9,3.4,0.4,5.1c-0.6,1.7-1.8,3-3.4,3.8c-1.4,0.6-2.6,1.2-3.9,1.8c-2.7,1.3-5.3,2.5-8.1,3.6c-9.6,3.5-19.5,7.1-29.4,10.3
			c-7.3,2.3-15.1,4.3-23.7,6.2c-6.3,1.4-13.1,2.4-21,3.3L431.5,686.4z"/>
	</g>
	<g>
		<linearGradient id="SVGID_24_" gradientUnits="userSpaceOnUse" x1="-130.3526" y1="407.9118" x2="3241.4836" y2="407.9118">
			<stop  offset="0" style="stop-color:#1400C8"/>
			<stop  offset="1" style="stop-color:#B900B4"/>
		</linearGradient>
		<path class="st23" d="M235.7,507.9c0-5.5,2.3-10.7,6.3-14.5l62.2-58.1v-76.9c-2.2-0.4-4.4-1.1-6.4-2.3l-68.7-38.3
			c-4.7-2.6-8.1-7-9.5-12.2c-1.4-5.2-0.6-10.7,2.2-15.4c5.3-8.8,11.3-16.8,18-24.2h-80.7c-74.6,0-111,30.4-111,74.2
			c0,27.2,13.8,49,38.1,61.6c-32,11.3-51.9,35.7-51.9,70.1c0,49,40.5,77.8,116.7,77.8h84.7V507.9z M224.7,491.8h-67.3
			c-27.6,0-42.2-9.3-42.2-28.8c0-19.5,14.6-28.8,42.2-28.8h67.3V491.8z M224.7,378.7h-55.1c-26.7,0-40.5-9.3-40.5-27.6
			c0-17.8,13.8-27.2,40.5-27.2h55.1V378.7z"/>
	</g>
	<g>
		<linearGradient id="SVGID_25_" gradientUnits="userSpaceOnUse" x1="-130.3526" y1="407.9118" x2="3241.4836" y2="407.9118">
			<stop  offset="0" style="stop-color:#1400C8"/>
			<stop  offset="1" style="stop-color:#B900B4"/>
		</linearGradient>
		<path class="st24" d="M692.6,401.8c24.3-12.6,38.1-34.4,38.1-61.6c0-43.8-36.5-74.2-111-74.2H500.1c13.7,18.7,21,41.2,21,65.7
			c0,36.8-10.5,71-62,118.3l-24.4,22.5h75.4c11,0,19.9,8.9,19.9,19.9v57.3h97.7c76.2,0,116.7-28.8,116.7-77.8
			C744.4,437.5,724.6,413.2,692.6,401.8z M553.9,324h55.1c26.7,0,40.5,9.3,40.5,27.2c0,18.2-13.8,27.6-40.5,27.6h-55.1V324z
			 M621.2,491.8h-67.3v-57.6h67.3c27.6,0,42.2,9.3,42.2,28.8C663.4,482.5,648.8,491.8,621.2,491.8z"/>
	</g>
	<path class="st25" d="M510.2,492.5v73.3H255.6v-57.9L378,393.5c26.2-24.3,29.9-39.2,29.9-52.8c0-21-14-33.6-42-33.6
		c-23.8,0-45.3,10.7-58.4,31.8l-68.7-38.3c24.8-41.1,71-68.2,135.5-68.2c75.2,0,127.1,38.8,127.1,99.5c0,31.8-8.9,60.7-55.6,103.7
		l-61.7,57H510.2z"/>
</g>
</svg>
