<?xml version="1.0" encoding="utf-8"?>
<!-- Generator: Adobe Illustrator 24.0.0, SVG Export Plug-In . SVG Version: 6.00 Build 0)  -->
<svg version="1.1" id="Layer_1" xmlns="http://www.w3.org/2000/svg" xmlns:xlink="http://www.w3.org/1999/xlink" x="0px" y="0px"
	 viewBox="0 0 1029.3 259.1" style="enable-background:new 0 0 1029.3 259.1;" xml:space="preserve">
<style type="text/css">
	.st0{fill:#FFFFFF;}
</style>
<g>
	<g>
		<g>
			<path class="st0" d="M273,159.3l0.1,13.8c-2.2,0-43.3,0-45.5,0h-6.9V94.8h13.8v64.5C246.8,159.3,271.3,159.3,273,159.3z"/>
			<path class="st0" d="M327.7,144.7c0,16.1-12.2,29.2-27.3,29.2s-27.3-13.1-27.3-29.2c0-16.1,12.2-29.2,27.3-29.2
				S327.7,128.6,327.7,144.7z M313.9,144.7c0-8.5-6-15.4-13.5-15.4c-7.4,0-13.5,6.9-13.5,15.4c0,8.5,6,15.4,13.5,15.4
				C307.8,160.1,313.9,153.2,313.9,144.7z"/>
			<path class="st0" d="M384.1,115.8v59.3c0,9.2-5.7,17.4-14.8,21.3c-3.5,1.5-7.1,2.2-10.7,2.2c-6.4,0-12.7-2.3-17.4-6.8
				c-2.6-2.5-4.1-4.6-5.9-8.1l12.3-6.3c1.1,2.2,1.8,3,3.1,4.3c4,3.8,9.6,3.4,13.1,1.9c1.5-0.6,6.4-3.2,6.4-8.6v-5.3
				c-3.8,2.1-8.2,3.3-12.8,3.3c-14.7,0-26.6-12-26.6-26.6v-30.7h13.8v30.7c0,7.1,5.7,12.8,12.8,12.8c7.1,0,12.8-5.7,12.8-12.8v-30.7
				H384.1z"/>
			<path class="st0" d="M443,144.7c0,0,0,28.5,0,28.5h-13.8v-3.2c-4,2.4-8.6,3.8-13.5,3.8c-15.1,0-27.3-13.1-27.3-29.2
				c0-16.1,12.3-29.2,27.3-29.2c4.9,0,9.5,1.4,13.5,3.8v-3.5H443V144.7C443,144.7,443,144.7,443,144.7z M429.1,144.7
				c0-8.5-6.1-15.3-13.5-15.3c-7.4,0-13.5,6.9-13.5,15.4c0,8.5,6.1,15.4,13.5,15.4C423.1,160.1,429.1,153.2,429.1,144.7L429.1,144.7
				z"/>
			<path class="st0" d="M449.3,173.3V94.8h13.8v78.5H449.3z"/>
			<path class="st0" d="M499,159.5v13.8h-9.6c-9.4,0-17-7.6-17-17v-26.7h-5.1v-13.8h5.1v-6.6h13.8v6.6h11v13.8h-11v26.7
				c0,1.8,1.4,3.2,3.2,3.2H499z"/>
			<path class="st0" d="M555.3,115.8v59.3c0,9.2-5.7,17.4-14.8,21.3c-3.5,1.5-7.1,2.2-10.7,2.2c-6.4,0-12.7-2.3-17.4-6.8
				c-2.6-2.5-4.1-4.6-5.9-8.1l12.3-6.3c1.1,2.2,1.8,3,3.1,4.3c4,3.8,9.6,3.4,13.1,1.9c1.5-0.6,6.4-3.2,6.4-8.6v-5.3
				c-3.8,2.1-8.2,3.3-12.8,3.3c-14.7,0-26.6-12-26.6-26.6v-30.7h13.8v30.7c0,7.1,5.7,12.8,12.8,12.8c7.1,0,12.8-5.7,12.8-12.8v-30.7
				H555.3z"/>
			<path class="st0" d="M644.1,119.7c0,13.7-10.1,24.8-22.5,24.8h-21.4v28.7h-13.8V94.8l35.2,0.1C634,94.9,644.1,106,644.1,119.7z
				 M630.3,119.7c0-6-3.9-11-8.7-11h-21.4v21.9h21.4C626.4,130.7,630.3,125.8,630.3,119.7z"/>
			<path class="st0" d="M687.5,119.6l-7,11.9c-2-1.1-4.2-1.7-6.5-1.7c-7.1,0-12.8,5.7-12.8,12.8v30.7h-13.8v-57.4h13.8v3.4
				c3.8-2.1,8.2-3.3,12.8-3.3C678.8,115.9,683.4,117.2,687.5,119.6z"/>
			<path class="st0" d="M738.4,144.7c0,16.1-12.2,29.2-27.3,29.2s-27.3-13.1-27.3-29.2c0-16.1,12.2-29.2,27.3-29.2
				S738.4,128.6,738.4,144.7z M724.6,144.7c0-8.5-6-15.4-13.5-15.4c-7.4,0-13.5,6.9-13.5,15.4c0,8.5,6,15.4,13.5,15.4
				C718.6,160.1,724.6,153.2,724.6,144.7z"/>
			<path class="st0" d="M777.7,180.2h13.8c0,11.2-8.2,20.3-18.3,20.3H761c-10.1,0-18.3-9.1-18.3-20.3c0-5.9,2.3-11.2,5.9-14.9
				c0,0,0,0,0,0c-5-5.3-8-12.6-8-20.7c0-11.8,6.7-22.1,16.2-26.6l-5.8-4.5l8.6-10.9l19.7,15.5h0c0,0,0,0,0,0l0,0l0,0
				c9.4,4.6,16,14.8,16,26.5c0,16.1-12.3,29.2-27.3,29.2c-0.9,0-1.7,0-2.5-0.1c0,0,0,0,0,0H761c-2.4,0-4.5,3-4.5,6.5
				c0,3.5,2.1,6.5,4.5,6.5h12.2C775.6,186.7,777.7,183.7,777.7,180.2z M754.4,144.7c0,7.8,5.1,14.3,11.7,15.2h3.6
				c6.6-1,11.7-7.4,11.7-15.2c0-8.5-6.1-15.4-13.5-15.4C760.5,129.3,754.4,136.2,754.4,144.7z"/>
			<path class="st0" d="M839.5,119.6l-7,11.9c-2-1.1-4.2-1.7-6.5-1.7c-7.1,0-12.8,5.7-12.8,12.8v30.7h-13.8v-57.4h13.8v3.4
				c3.8-2.1,8.2-3.3,12.8-3.3C830.7,115.9,835.4,117.2,839.5,119.6z"/>
			<path class="st0" d="M890.4,144.7c0,0,0,28.5,0,28.5h-13.8v-3.2c-4,2.4-8.6,3.8-13.5,3.8c-15.1,0-27.3-13.1-27.3-29.2
				c0-16.1,12.3-29.2,27.3-29.2c4.9,0,9.5,1.4,13.5,3.8v-3.5h13.8V144.7C890.4,144.7,890.4,144.7,890.4,144.7z M876.6,144.7
				c0-8.5-6.1-15.3-13.5-15.3c-7.4,0-13.5,6.9-13.5,15.4c0,8.5,6.1,15.4,13.5,15.4C870.5,160.1,876.6,153.2,876.6,144.7L876.6,144.7
				z"/>
			<path class="st0" d="M989.5,142.6v30.7h-13.8v-30.7c0-7.1-5.7-12.8-12.8-12.8c-7.1,0-12.8,5.7-12.8,12.8v30.7h-13.8v-30.7
				c0-7.1-5.7-12.8-12.8-12.8c-7.1,0-12.8,5.7-12.8,12.8v30.7h-13.8v-57.4h13.8v3.4c3.8-2.1,8.2-3.3,12.8-3.3
				c7.8,0,14.8,3.4,19.7,8.8c4.9-5.4,11.9-8.8,19.7-8.8C977.6,115.9,989.5,127.9,989.5,142.6z"/>
		</g>
	</g>
	<path class="st0" d="M61,88.1c1.1-1.4,2-2.4,2.8-3.5c11-14.6,22-29.3,32.9-43.9c4.4-5.8,9.4-5.8,13.8,0c11,14.6,22,29.3,32.9,43.9
		c0.8,1.1,1.6,2.1,2.8,3.5c4.7-4.8,9.2-9.3,13.6-13.9c2.5-2.6,5.3-4.3,9-2.7c3.6,1.5,4.1,4.6,4.1,8.1c-0.1,26.2,0.2,52.3-0.3,78.5
		c-0.6,31.2-26.2,59.6-57.2,64.3c-37.7,5.8-71-16.5-79.6-53.5c-1.2-5.2-1.6-10.7-1.6-16.1c-0.2-24.3-0.1-48.5-0.1-72.8
		c0-3.2,0.2-6.3,3.4-8.1c3.5-1.9,6.5-0.9,9.2,1.8C51.4,78.4,56.1,83.1,61,88.1z M48.9,133.6c0,10.1-1.2,20.1,0.2,29.7
		c3.3,21.5,16.1,36.2,36.5,43.2c20.1,6.9,38.8,2.9,54.9-11.2c19.1-16.7,19.7-38.8,18-61.7C121.9,133.6,85.2,133.6,48.9,133.6z
		 M48.3,119.2c37.1,0,73.8,0,110.4,0c0-8,0-15.8,0-23.5c-0.3-0.2-0.6-0.3-0.9-0.5c-1.7,1.9-3.3,4-5.1,5.8c-6.4,6.4-9.7,6.2-15-0.9
		c-10.4-13.9-20.8-27.8-31.2-41.6c-0.9-1.1-1.8-2.2-2.8-3.5c-1.2,1.5-2,2.5-2.8,3.6c-10.7,14.2-21.3,28.4-32,42.6
		c-4.2,5.6-8.2,5.8-13.2,1c-2.3-2.2-4.5-4.4-7.3-7.1C48.3,103.6,48.3,111.3,48.3,119.2z"/>
	<path class="st0" d="M131.5,154.3c4.5,0,8.8,0,13.6,0c-0.2,14.7-6.4,26.2-18.1,34.1c-14.2,9.6-29.4,10.3-44.4,1.5
		c-13.2-7.8-19.9-19.7-20.7-35.4c4.7,0,9.1,0,13.8,0c0.6,9.1,4.2,16.9,11.9,22.3c5.4,3.8,11.4,5.4,18,5
		C119.6,180.8,129,171,131.5,154.3z"/>
	<path class="st0" d="M96.9,91.9c4.6,0,8.8,0,13.3,0c0,4.5,0,8.7,0,13.3c-4.4,0-8.7,0-13.3,0C96.9,100.9,96.9,96.6,96.9,91.9z"/>
</g>
</svg>
